<?xml version="1.0" encoding="utf-8" standalone="no"?>
<!DOCTYPE svg PUBLIC "-//W3C//DTD SVG 1.1//EN"
  "http://www.w3.org/Graphics/SVG/1.1/DTD/svg11.dtd">
<svg xmlns:xlink="http://www.w3.org/1999/xlink" width="864pt" height="432pt" viewBox="0 0 864 432" xmlns="http://www.w3.org/2000/svg" version="1.1">
 <metadata>
  <rdf:RDF xmlns:dc="http://purl.org/dc/elements/1.1/" xmlns:cc="http://creativecommons.org/ns#" xmlns:rdf="http://www.w3.org/1999/02/22-rdf-syntax-ns#">
   <cc:Work>
    <dc:type rdf:resource="http://purl.org/dc/dcmitype/StillImage"/>
    <dc:date>2024-12-05T08:59:44.652547</dc:date>
    <dc:format>image/svg+xml</dc:format>
    <dc:creator>
     <cc:Agent>
      <dc:title>Matplotlib v3.8.0, https://matplotlib.org/</dc:title>
     </cc:Agent>
    </dc:creator>
   </cc:Work>
  </rdf:RDF>
 </metadata>
 <defs>
  <style type="text/css">*{stroke-linejoin: round; stroke-linecap: butt}</style>
 </defs>
 <g id="figure_1">
  <g id="patch_1">
   <path d="M 0 432 
L 864 432 
L 864 0 
L 0 0 
z
" style="fill: #ffffff"/>
  </g>
  <g id="axes_1">
   <g id="patch_2">
    <path d="M 108 384.48 
L 777.6 384.48 
L 777.6 51.84 
L 108 51.84 
z
" style="fill: #ffffff"/>
   </g>
   <g id="matplotlib.axis_1">
    <g id="xtick_1">
     <g id="line2d_1">
      <path d="M 138.436364 384.48 
L 138.436364 51.84 
" clip-path="url(#pcf3c207351)" style="fill: none; stroke: #b0b0b0; stroke-width: 0.8; stroke-linecap: square"/>
     </g>
     <g id="line2d_2">
      <defs>
       <path id="m6dd2fbbc94" d="M 0 0 
L 0 3.5 
" style="stroke: #000000; stroke-width: 0.8"/>
      </defs>
      <g>
       <use xlink:href="#m6dd2fbbc94" x="138.436364" y="384.48" style="stroke: #000000; stroke-width: 0.8"/>
      </g>
     </g>
     <g id="text_1">
      <!-- 1 -->
      <g transform="translate(135.255114 399.078438) scale(0.1 -0.1)">
       <defs>
        <path id="DejaVuSans-31" d="M 794 531 
L 1825 531 
L 1825 4091 
L 703 3866 
L 703 4441 
L 1819 4666 
L 2450 4666 
L 2450 531 
L 3481 531 
L 3481 0 
L 794 0 
L 794 531 
z
" transform="scale(0.015625)"/>
       </defs>
       <use xlink:href="#DejaVuSans-31"/>
      </g>
     </g>
    </g>
    <g id="xtick_2">
     <g id="line2d_3">
      <path d="M 150.859369 384.48 
L 150.859369 51.84 
" clip-path="url(#pcf3c207351)" style="fill: none; stroke: #b0b0b0; stroke-width: 0.8; stroke-linecap: square"/>
     </g>
     <g id="line2d_4">
      <g>
       <use xlink:href="#m6dd2fbbc94" x="150.859369" y="384.48" style="stroke: #000000; stroke-width: 0.8"/>
      </g>
     </g>
     <g id="text_2">
      <!-- 2 -->
      <g transform="translate(147.678119 399.078438) scale(0.1 -0.1)">
       <defs>
        <path id="DejaVuSans-32" d="M 1228 531 
L 3431 531 
L 3431 0 
L 469 0 
L 469 531 
Q 828 903 1448 1529 
Q 2069 2156 2228 2338 
Q 2531 2678 2651 2914 
Q 2772 3150 2772 3378 
Q 2772 3750 2511 3984 
Q 2250 4219 1831 4219 
Q 1534 4219 1204 4116 
Q 875 4013 500 3803 
L 500 4441 
Q 881 4594 1212 4672 
Q 1544 4750 1819 4750 
Q 2544 4750 2975 4387 
Q 3406 4025 3406 3419 
Q 3406 3131 3298 2873 
Q 3191 2616 2906 2266 
Q 2828 2175 2409 1742 
Q 1991 1309 1228 531 
z
" transform="scale(0.015625)"/>
       </defs>
       <use xlink:href="#DejaVuSans-32"/>
      </g>
     </g>
    </g>
    <g id="xtick_3">
     <g id="line2d_5">
      <path d="M 163.282375 384.48 
L 163.282375 51.84 
" clip-path="url(#pcf3c207351)" style="fill: none; stroke: #b0b0b0; stroke-width: 0.8; stroke-linecap: square"/>
     </g>
     <g id="line2d_6">
      <g>
       <use xlink:href="#m6dd2fbbc94" x="163.282375" y="384.48" style="stroke: #000000; stroke-width: 0.8"/>
      </g>
     </g>
     <g id="text_3">
      <!-- 3 -->
      <g transform="translate(160.101125 399.078438) scale(0.1 -0.1)">
       <defs>
        <path id="DejaVuSans-33" d="M 2597 2516 
Q 3050 2419 3304 2112 
Q 3559 1806 3559 1356 
Q 3559 666 3084 287 
Q 2609 -91 1734 -91 
Q 1441 -91 1130 -33 
Q 819 25 488 141 
L 488 750 
Q 750 597 1062 519 
Q 1375 441 1716 441 
Q 2309 441 2620 675 
Q 2931 909 2931 1356 
Q 2931 1769 2642 2001 
Q 2353 2234 1838 2234 
L 1294 2234 
L 1294 2753 
L 1863 2753 
Q 2328 2753 2575 2939 
Q 2822 3125 2822 3475 
Q 2822 3834 2567 4026 
Q 2313 4219 1838 4219 
Q 1578 4219 1281 4162 
Q 984 4106 628 3988 
L 628 4550 
Q 988 4650 1302 4700 
Q 1616 4750 1894 4750 
Q 2613 4750 3031 4423 
Q 3450 4097 3450 3541 
Q 3450 3153 3228 2886 
Q 3006 2619 2597 2516 
z
" transform="scale(0.015625)"/>
       </defs>
       <use xlink:href="#DejaVuSans-33"/>
      </g>
     </g>
    </g>
    <g id="xtick_4">
     <g id="line2d_7">
      <path d="M 175.70538 384.48 
L 175.70538 51.84 
" clip-path="url(#pcf3c207351)" style="fill: none; stroke: #b0b0b0; stroke-width: 0.8; stroke-linecap: square"/>
     </g>
     <g id="line2d_8">
      <g>
       <use xlink:href="#m6dd2fbbc94" x="175.70538" y="384.48" style="stroke: #000000; stroke-width: 0.8"/>
      </g>
     </g>
     <g id="text_4">
      <!-- 4 -->
      <g transform="translate(172.52413 399.078438) scale(0.1 -0.1)">
       <defs>
        <path id="DejaVuSans-34" d="M 2419 4116 
L 825 1625 
L 2419 1625 
L 2419 4116 
z
M 2253 4666 
L 3047 4666 
L 3047 1625 
L 3713 1625 
L 3713 1100 
L 3047 1100 
L 3047 0 
L 2419 0 
L 2419 1100 
L 313 1100 
L 313 1709 
L 2253 4666 
z
" transform="scale(0.015625)"/>
       </defs>
       <use xlink:href="#DejaVuSans-34"/>
      </g>
     </g>
    </g>
    <g id="xtick_5">
     <g id="line2d_9">
      <path d="M 188.128386 384.48 
L 188.128386 51.84 
" clip-path="url(#pcf3c207351)" style="fill: none; stroke: #b0b0b0; stroke-width: 0.8; stroke-linecap: square"/>
     </g>
     <g id="line2d_10">
      <g>
       <use xlink:href="#m6dd2fbbc94" x="188.128386" y="384.48" style="stroke: #000000; stroke-width: 0.8"/>
      </g>
     </g>
     <g id="text_5">
      <!-- 5 -->
      <g transform="translate(184.947136 399.078438) scale(0.1 -0.1)">
       <defs>
        <path id="DejaVuSans-35" d="M 691 4666 
L 3169 4666 
L 3169 4134 
L 1269 4134 
L 1269 2991 
Q 1406 3038 1543 3061 
Q 1681 3084 1819 3084 
Q 2600 3084 3056 2656 
Q 3513 2228 3513 1497 
Q 3513 744 3044 326 
Q 2575 -91 1722 -91 
Q 1428 -91 1123 -41 
Q 819 9 494 109 
L 494 744 
Q 775 591 1075 516 
Q 1375 441 1709 441 
Q 2250 441 2565 725 
Q 2881 1009 2881 1497 
Q 2881 1984 2565 2268 
Q 2250 2553 1709 2553 
Q 1456 2553 1204 2497 
Q 953 2441 691 2322 
L 691 4666 
z
" transform="scale(0.015625)"/>
       </defs>
       <use xlink:href="#DejaVuSans-35"/>
      </g>
     </g>
    </g>
    <g id="xtick_6">
     <g id="line2d_11">
      <path d="M 250.243414 384.48 
L 250.243414 51.84 
" clip-path="url(#pcf3c207351)" style="fill: none; stroke: #b0b0b0; stroke-width: 0.8; stroke-linecap: square"/>
     </g>
     <g id="line2d_12">
      <g>
       <use xlink:href="#m6dd2fbbc94" x="250.243414" y="384.48" style="stroke: #000000; stroke-width: 0.8"/>
      </g>
     </g>
     <g id="text_6">
      <!-- 10 -->
      <g transform="translate(243.880914 399.078438) scale(0.1 -0.1)">
       <defs>
        <path id="DejaVuSans-30" d="M 2034 4250 
Q 1547 4250 1301 3770 
Q 1056 3291 1056 2328 
Q 1056 1369 1301 889 
Q 1547 409 2034 409 
Q 2525 409 2770 889 
Q 3016 1369 3016 2328 
Q 3016 3291 2770 3770 
Q 2525 4250 2034 4250 
z
M 2034 4750 
Q 2819 4750 3233 4129 
Q 3647 3509 3647 2328 
Q 3647 1150 3233 529 
Q 2819 -91 2034 -91 
Q 1250 -91 836 529 
Q 422 1150 422 2328 
Q 422 3509 836 4129 
Q 1250 4750 2034 4750 
z
" transform="scale(0.015625)"/>
       </defs>
       <use xlink:href="#DejaVuSans-31"/>
       <use xlink:href="#DejaVuSans-30" x="63.623047"/>
      </g>
     </g>
    </g>
    <g id="xtick_7">
     <g id="line2d_13">
      <path d="M 312.358442 384.48 
L 312.358442 51.84 
" clip-path="url(#pcf3c207351)" style="fill: none; stroke: #b0b0b0; stroke-width: 0.8; stroke-linecap: square"/>
     </g>
     <g id="line2d_14">
      <g>
       <use xlink:href="#m6dd2fbbc94" x="312.358442" y="384.48" style="stroke: #000000; stroke-width: 0.8"/>
      </g>
     </g>
     <g id="text_7">
      <!-- 15 -->
      <g transform="translate(305.995942 399.078438) scale(0.1 -0.1)">
       <use xlink:href="#DejaVuSans-31"/>
       <use xlink:href="#DejaVuSans-35" x="63.623047"/>
      </g>
     </g>
    </g>
    <g id="xtick_8">
     <g id="line2d_15">
      <path d="M 374.473469 384.48 
L 374.473469 51.84 
" clip-path="url(#pcf3c207351)" style="fill: none; stroke: #b0b0b0; stroke-width: 0.8; stroke-linecap: square"/>
     </g>
     <g id="line2d_16">
      <g>
       <use xlink:href="#m6dd2fbbc94" x="374.473469" y="384.48" style="stroke: #000000; stroke-width: 0.8"/>
      </g>
     </g>
     <g id="text_8">
      <!-- 20 -->
      <g transform="translate(368.110969 399.078438) scale(0.1 -0.1)">
       <use xlink:href="#DejaVuSans-32"/>
       <use xlink:href="#DejaVuSans-30" x="63.623047"/>
      </g>
     </g>
    </g>
    <g id="xtick_9">
     <g id="line2d_17">
      <path d="M 436.588497 384.48 
L 436.588497 51.84 
" clip-path="url(#pcf3c207351)" style="fill: none; stroke: #b0b0b0; stroke-width: 0.8; stroke-linecap: square"/>
     </g>
     <g id="line2d_18">
      <g>
       <use xlink:href="#m6dd2fbbc94" x="436.588497" y="384.48" style="stroke: #000000; stroke-width: 0.8"/>
      </g>
     </g>
     <g id="text_9">
      <!-- 25 -->
      <g transform="translate(430.225997 399.078438) scale(0.1 -0.1)">
       <use xlink:href="#DejaVuSans-32"/>
       <use xlink:href="#DejaVuSans-35" x="63.623047"/>
      </g>
     </g>
    </g>
    <g id="xtick_10">
     <g id="line2d_19">
      <path d="M 498.703525 384.48 
L 498.703525 51.84 
" clip-path="url(#pcf3c207351)" style="fill: none; stroke: #b0b0b0; stroke-width: 0.8; stroke-linecap: square"/>
     </g>
     <g id="line2d_20">
      <g>
       <use xlink:href="#m6dd2fbbc94" x="498.703525" y="384.48" style="stroke: #000000; stroke-width: 0.8"/>
      </g>
     </g>
     <g id="text_10">
      <!-- 30 -->
      <g transform="translate(492.341025 399.078438) scale(0.1 -0.1)">
       <use xlink:href="#DejaVuSans-33"/>
       <use xlink:href="#DejaVuSans-30" x="63.623047"/>
      </g>
     </g>
    </g>
    <g id="xtick_11">
     <g id="line2d_21">
      <path d="M 622.933581 384.48 
L 622.933581 51.84 
" clip-path="url(#pcf3c207351)" style="fill: none; stroke: #b0b0b0; stroke-width: 0.8; stroke-linecap: square"/>
     </g>
     <g id="line2d_22">
      <g>
       <use xlink:href="#m6dd2fbbc94" x="622.933581" y="384.48" style="stroke: #000000; stroke-width: 0.8"/>
      </g>
     </g>
     <g id="text_11">
      <!-- 40 -->
      <g transform="translate(616.571081 399.078438) scale(0.1 -0.1)">
       <use xlink:href="#DejaVuSans-34"/>
       <use xlink:href="#DejaVuSans-30" x="63.623047"/>
      </g>
     </g>
    </g>
    <g id="xtick_12">
     <g id="line2d_23">
      <path d="M 747.163636 384.48 
L 747.163636 51.84 
" clip-path="url(#pcf3c207351)" style="fill: none; stroke: #b0b0b0; stroke-width: 0.8; stroke-linecap: square"/>
     </g>
     <g id="line2d_24">
      <g>
       <use xlink:href="#m6dd2fbbc94" x="747.163636" y="384.48" style="stroke: #000000; stroke-width: 0.8"/>
      </g>
     </g>
     <g id="text_12">
      <!-- 50 -->
      <g transform="translate(740.801136 399.078438) scale(0.1 -0.1)">
       <use xlink:href="#DejaVuSans-35"/>
       <use xlink:href="#DejaVuSans-30" x="63.623047"/>
      </g>
     </g>
    </g>
    <g id="text_13">
     <!-- Number of acquisition cycles -->
     <g transform="translate(370.482813 412.756563) scale(0.1 -0.1)">
      <defs>
       <path id="DejaVuSans-4e" d="M 628 4666 
L 1478 4666 
L 3547 763 
L 3547 4666 
L 4159 4666 
L 4159 0 
L 3309 0 
L 1241 3903 
L 1241 0 
L 628 0 
L 628 4666 
z
" transform="scale(0.015625)"/>
       <path id="DejaVuSans-75" d="M 544 1381 
L 544 3500 
L 1119 3500 
L 1119 1403 
Q 1119 906 1312 657 
Q 1506 409 1894 409 
Q 2359 409 2629 706 
Q 2900 1003 2900 1516 
L 2900 3500 
L 3475 3500 
L 3475 0 
L 2900 0 
L 2900 538 
Q 2691 219 2414 64 
Q 2138 -91 1772 -91 
Q 1169 -91 856 284 
Q 544 659 544 1381 
z
M 1991 3584 
L 1991 3584 
z
" transform="scale(0.015625)"/>
       <path id="DejaVuSans-6d" d="M 3328 2828 
Q 3544 3216 3844 3400 
Q 4144 3584 4550 3584 
Q 5097 3584 5394 3201 
Q 5691 2819 5691 2113 
L 5691 0 
L 5113 0 
L 5113 2094 
Q 5113 2597 4934 2840 
Q 4756 3084 4391 3084 
Q 3944 3084 3684 2787 
Q 3425 2491 3425 1978 
L 3425 0 
L 2847 0 
L 2847 2094 
Q 2847 2600 2669 2842 
Q 2491 3084 2119 3084 
Q 1678 3084 1418 2786 
Q 1159 2488 1159 1978 
L 1159 0 
L 581 0 
L 581 3500 
L 1159 3500 
L 1159 2956 
Q 1356 3278 1631 3431 
Q 1906 3584 2284 3584 
Q 2666 3584 2933 3390 
Q 3200 3197 3328 2828 
z
" transform="scale(0.015625)"/>
       <path id="DejaVuSans-62" d="M 3116 1747 
Q 3116 2381 2855 2742 
Q 2594 3103 2138 3103 
Q 1681 3103 1420 2742 
Q 1159 2381 1159 1747 
Q 1159 1113 1420 752 
Q 1681 391 2138 391 
Q 2594 391 2855 752 
Q 3116 1113 3116 1747 
z
M 1159 2969 
Q 1341 3281 1617 3432 
Q 1894 3584 2278 3584 
Q 2916 3584 3314 3078 
Q 3713 2572 3713 1747 
Q 3713 922 3314 415 
Q 2916 -91 2278 -91 
Q 1894 -91 1617 61 
Q 1341 213 1159 525 
L 1159 0 
L 581 0 
L 581 4863 
L 1159 4863 
L 1159 2969 
z
" transform="scale(0.015625)"/>
       <path id="DejaVuSans-65" d="M 3597 1894 
L 3597 1613 
L 953 1613 
Q 991 1019 1311 708 
Q 1631 397 2203 397 
Q 2534 397 2845 478 
Q 3156 559 3463 722 
L 3463 178 
Q 3153 47 2828 -22 
Q 2503 -91 2169 -91 
Q 1331 -91 842 396 
Q 353 884 353 1716 
Q 353 2575 817 3079 
Q 1281 3584 2069 3584 
Q 2775 3584 3186 3129 
Q 3597 2675 3597 1894 
z
M 3022 2063 
Q 3016 2534 2758 2815 
Q 2500 3097 2075 3097 
Q 1594 3097 1305 2825 
Q 1016 2553 972 2059 
L 3022 2063 
z
" transform="scale(0.015625)"/>
       <path id="DejaVuSans-72" d="M 2631 2963 
Q 2534 3019 2420 3045 
Q 2306 3072 2169 3072 
Q 1681 3072 1420 2755 
Q 1159 2438 1159 1844 
L 1159 0 
L 581 0 
L 581 3500 
L 1159 3500 
L 1159 2956 
Q 1341 3275 1631 3429 
Q 1922 3584 2338 3584 
Q 2397 3584 2469 3576 
Q 2541 3569 2628 3553 
L 2631 2963 
z
" transform="scale(0.015625)"/>
       <path id="DejaVuSans-20" transform="scale(0.015625)"/>
       <path id="DejaVuSans-6f" d="M 1959 3097 
Q 1497 3097 1228 2736 
Q 959 2375 959 1747 
Q 959 1119 1226 758 
Q 1494 397 1959 397 
Q 2419 397 2687 759 
Q 2956 1122 2956 1747 
Q 2956 2369 2687 2733 
Q 2419 3097 1959 3097 
z
M 1959 3584 
Q 2709 3584 3137 3096 
Q 3566 2609 3566 1747 
Q 3566 888 3137 398 
Q 2709 -91 1959 -91 
Q 1206 -91 779 398 
Q 353 888 353 1747 
Q 353 2609 779 3096 
Q 1206 3584 1959 3584 
z
" transform="scale(0.015625)"/>
       <path id="DejaVuSans-66" d="M 2375 4863 
L 2375 4384 
L 1825 4384 
Q 1516 4384 1395 4259 
Q 1275 4134 1275 3809 
L 1275 3500 
L 2222 3500 
L 2222 3053 
L 1275 3053 
L 1275 0 
L 697 0 
L 697 3053 
L 147 3053 
L 147 3500 
L 697 3500 
L 697 3744 
Q 697 4328 969 4595 
Q 1241 4863 1831 4863 
L 2375 4863 
z
" transform="scale(0.015625)"/>
       <path id="DejaVuSans-61" d="M 2194 1759 
Q 1497 1759 1228 1600 
Q 959 1441 959 1056 
Q 959 750 1161 570 
Q 1363 391 1709 391 
Q 2188 391 2477 730 
Q 2766 1069 2766 1631 
L 2766 1759 
L 2194 1759 
z
M 3341 1997 
L 3341 0 
L 2766 0 
L 2766 531 
Q 2569 213 2275 61 
Q 1981 -91 1556 -91 
Q 1019 -91 701 211 
Q 384 513 384 1019 
Q 384 1609 779 1909 
Q 1175 2209 1959 2209 
L 2766 2209 
L 2766 2266 
Q 2766 2663 2505 2880 
Q 2244 3097 1772 3097 
Q 1472 3097 1187 3025 
Q 903 2953 641 2809 
L 641 3341 
Q 956 3463 1253 3523 
Q 1550 3584 1831 3584 
Q 2591 3584 2966 3190 
Q 3341 2797 3341 1997 
z
" transform="scale(0.015625)"/>
       <path id="DejaVuSans-63" d="M 3122 3366 
L 3122 2828 
Q 2878 2963 2633 3030 
Q 2388 3097 2138 3097 
Q 1578 3097 1268 2742 
Q 959 2388 959 1747 
Q 959 1106 1268 751 
Q 1578 397 2138 397 
Q 2388 397 2633 464 
Q 2878 531 3122 666 
L 3122 134 
Q 2881 22 2623 -34 
Q 2366 -91 2075 -91 
Q 1284 -91 818 406 
Q 353 903 353 1747 
Q 353 2603 823 3093 
Q 1294 3584 2113 3584 
Q 2378 3584 2631 3529 
Q 2884 3475 3122 3366 
z
" transform="scale(0.015625)"/>
       <path id="DejaVuSans-71" d="M 947 1747 
Q 947 1113 1208 752 
Q 1469 391 1925 391 
Q 2381 391 2643 752 
Q 2906 1113 2906 1747 
Q 2906 2381 2643 2742 
Q 2381 3103 1925 3103 
Q 1469 3103 1208 2742 
Q 947 2381 947 1747 
z
M 2906 525 
Q 2725 213 2448 61 
Q 2172 -91 1784 -91 
Q 1150 -91 751 415 
Q 353 922 353 1747 
Q 353 2572 751 3078 
Q 1150 3584 1784 3584 
Q 2172 3584 2448 3432 
Q 2725 3281 2906 2969 
L 2906 3500 
L 3481 3500 
L 3481 -1331 
L 2906 -1331 
L 2906 525 
z
" transform="scale(0.015625)"/>
       <path id="DejaVuSans-69" d="M 603 3500 
L 1178 3500 
L 1178 0 
L 603 0 
L 603 3500 
z
M 603 4863 
L 1178 4863 
L 1178 4134 
L 603 4134 
L 603 4863 
z
" transform="scale(0.015625)"/>
       <path id="DejaVuSans-73" d="M 2834 3397 
L 2834 2853 
Q 2591 2978 2328 3040 
Q 2066 3103 1784 3103 
Q 1356 3103 1142 2972 
Q 928 2841 928 2578 
Q 928 2378 1081 2264 
Q 1234 2150 1697 2047 
L 1894 2003 
Q 2506 1872 2764 1633 
Q 3022 1394 3022 966 
Q 3022 478 2636 193 
Q 2250 -91 1575 -91 
Q 1294 -91 989 -36 
Q 684 19 347 128 
L 347 722 
Q 666 556 975 473 
Q 1284 391 1588 391 
Q 1994 391 2212 530 
Q 2431 669 2431 922 
Q 2431 1156 2273 1281 
Q 2116 1406 1581 1522 
L 1381 1569 
Q 847 1681 609 1914 
Q 372 2147 372 2553 
Q 372 3047 722 3315 
Q 1072 3584 1716 3584 
Q 2034 3584 2315 3537 
Q 2597 3491 2834 3397 
z
" transform="scale(0.015625)"/>
       <path id="DejaVuSans-74" d="M 1172 4494 
L 1172 3500 
L 2356 3500 
L 2356 3053 
L 1172 3053 
L 1172 1153 
Q 1172 725 1289 603 
Q 1406 481 1766 481 
L 2356 481 
L 2356 0 
L 1766 0 
Q 1100 0 847 248 
Q 594 497 594 1153 
L 594 3053 
L 172 3053 
L 172 3500 
L 594 3500 
L 594 4494 
L 1172 4494 
z
" transform="scale(0.015625)"/>
       <path id="DejaVuSans-6e" d="M 3513 2113 
L 3513 0 
L 2938 0 
L 2938 2094 
Q 2938 2591 2744 2837 
Q 2550 3084 2163 3084 
Q 1697 3084 1428 2787 
Q 1159 2491 1159 1978 
L 1159 0 
L 581 0 
L 581 3500 
L 1159 3500 
L 1159 2956 
Q 1366 3272 1645 3428 
Q 1925 3584 2291 3584 
Q 2894 3584 3203 3211 
Q 3513 2838 3513 2113 
z
" transform="scale(0.015625)"/>
       <path id="DejaVuSans-79" d="M 2059 -325 
Q 1816 -950 1584 -1140 
Q 1353 -1331 966 -1331 
L 506 -1331 
L 506 -850 
L 844 -850 
Q 1081 -850 1212 -737 
Q 1344 -625 1503 -206 
L 1606 56 
L 191 3500 
L 800 3500 
L 1894 763 
L 2988 3500 
L 3597 3500 
L 2059 -325 
z
" transform="scale(0.015625)"/>
       <path id="DejaVuSans-6c" d="M 603 4863 
L 1178 4863 
L 1178 0 
L 603 0 
L 603 4863 
z
" transform="scale(0.015625)"/>
      </defs>
      <use xlink:href="#DejaVuSans-4e"/>
      <use xlink:href="#DejaVuSans-75" x="74.804688"/>
      <use xlink:href="#DejaVuSans-6d" x="138.183594"/>
      <use xlink:href="#DejaVuSans-62" x="235.595703"/>
      <use xlink:href="#DejaVuSans-65" x="299.072266"/>
      <use xlink:href="#DejaVuSans-72" x="360.595703"/>
      <use xlink:href="#DejaVuSans-20" x="401.708984"/>
      <use xlink:href="#DejaVuSans-6f" x="433.496094"/>
      <use xlink:href="#DejaVuSans-66" x="494.677734"/>
      <use xlink:href="#DejaVuSans-20" x="529.882812"/>
      <use xlink:href="#DejaVuSans-61" x="561.669922"/>
      <use xlink:href="#DejaVuSans-63" x="622.949219"/>
      <use xlink:href="#DejaVuSans-71" x="677.929688"/>
      <use xlink:href="#DejaVuSans-75" x="741.40625"/>
      <use xlink:href="#DejaVuSans-69" x="804.785156"/>
      <use xlink:href="#DejaVuSans-73" x="832.568359"/>
      <use xlink:href="#DejaVuSans-69" x="884.667969"/>
      <use xlink:href="#DejaVuSans-74" x="912.451172"/>
      <use xlink:href="#DejaVuSans-69" x="951.660156"/>
      <use xlink:href="#DejaVuSans-6f" x="979.443359"/>
      <use xlink:href="#DejaVuSans-6e" x="1040.625"/>
      <use xlink:href="#DejaVuSans-20" x="1104.003906"/>
      <use xlink:href="#DejaVuSans-63" x="1135.791016"/>
      <use xlink:href="#DejaVuSans-79" x="1190.771484"/>
      <use xlink:href="#DejaVuSans-63" x="1249.951172"/>
      <use xlink:href="#DejaVuSans-6c" x="1304.931641"/>
      <use xlink:href="#DejaVuSans-65" x="1332.714844"/>
      <use xlink:href="#DejaVuSans-73" x="1394.238281"/>
     </g>
    </g>
   </g>
   <g id="matplotlib.axis_2">
    <g id="ytick_1">
     <g id="line2d_25">
      <path d="M 108 341.888799 
L 777.6 341.888799 
" clip-path="url(#pcf3c207351)" style="fill: none; stroke: #b0b0b0; stroke-width: 0.8; stroke-linecap: square"/>
     </g>
     <g id="line2d_26">
      <defs>
       <path id="mbc390e429a" d="M 0 0 
L -3.5 0 
" style="stroke: #000000; stroke-width: 0.8"/>
      </defs>
      <g>
       <use xlink:href="#mbc390e429a" x="108" y="341.888799" style="stroke: #000000; stroke-width: 0.8"/>
      </g>
     </g>
     <g id="text_14">
      <!-- 20 -->
      <g transform="translate(88.275 345.688017) scale(0.1 -0.1)">
       <use xlink:href="#DejaVuSans-32"/>
       <use xlink:href="#DejaVuSans-30" x="63.623047"/>
      </g>
     </g>
    </g>
    <g id="ytick_2">
     <g id="line2d_27">
      <path d="M 108 282.370926 
L 777.6 282.370926 
" clip-path="url(#pcf3c207351)" style="fill: none; stroke: #b0b0b0; stroke-width: 0.8; stroke-linecap: square"/>
     </g>
     <g id="line2d_28">
      <g>
       <use xlink:href="#mbc390e429a" x="108" y="282.370926" style="stroke: #000000; stroke-width: 0.8"/>
      </g>
     </g>
     <g id="text_15">
      <!-- 25 -->
      <g transform="translate(88.275 286.170145) scale(0.1 -0.1)">
       <use xlink:href="#DejaVuSans-32"/>
       <use xlink:href="#DejaVuSans-35" x="63.623047"/>
      </g>
     </g>
    </g>
    <g id="ytick_3">
     <g id="line2d_29">
      <path d="M 108 222.853054 
L 777.6 222.853054 
" clip-path="url(#pcf3c207351)" style="fill: none; stroke: #b0b0b0; stroke-width: 0.8; stroke-linecap: square"/>
     </g>
     <g id="line2d_30">
      <g>
       <use xlink:href="#mbc390e429a" x="108" y="222.853054" style="stroke: #000000; stroke-width: 0.8"/>
      </g>
     </g>
     <g id="text_16">
      <!-- 30 -->
      <g transform="translate(88.275 226.652273) scale(0.1 -0.1)">
       <use xlink:href="#DejaVuSans-33"/>
       <use xlink:href="#DejaVuSans-30" x="63.623047"/>
      </g>
     </g>
    </g>
    <g id="ytick_4">
     <g id="line2d_31">
      <path d="M 108 163.335182 
L 777.6 163.335182 
" clip-path="url(#pcf3c207351)" style="fill: none; stroke: #b0b0b0; stroke-width: 0.8; stroke-linecap: square"/>
     </g>
     <g id="line2d_32">
      <g>
       <use xlink:href="#mbc390e429a" x="108" y="163.335182" style="stroke: #000000; stroke-width: 0.8"/>
      </g>
     </g>
     <g id="text_17">
      <!-- 35 -->
      <g transform="translate(88.275 167.134401) scale(0.1 -0.1)">
       <use xlink:href="#DejaVuSans-33"/>
       <use xlink:href="#DejaVuSans-35" x="63.623047"/>
      </g>
     </g>
    </g>
    <g id="ytick_5">
     <g id="line2d_33">
      <path d="M 108 103.81731 
L 777.6 103.81731 
" clip-path="url(#pcf3c207351)" style="fill: none; stroke: #b0b0b0; stroke-width: 0.8; stroke-linecap: square"/>
     </g>
     <g id="line2d_34">
      <g>
       <use xlink:href="#mbc390e429a" x="108" y="103.81731" style="stroke: #000000; stroke-width: 0.8"/>
      </g>
     </g>
     <g id="text_18">
      <!-- 40 -->
      <g transform="translate(88.275 107.616528) scale(0.1 -0.1)">
       <use xlink:href="#DejaVuSans-34"/>
       <use xlink:href="#DejaVuSans-30" x="63.623047"/>
      </g>
     </g>
    </g>
    <g id="text_19">
     <!-- Power losses (W) -->
     <g transform="translate(82.195312 260.636562) rotate(-90) scale(0.1 -0.1)">
      <defs>
       <path id="DejaVuSans-50" d="M 1259 4147 
L 1259 2394 
L 2053 2394 
Q 2494 2394 2734 2622 
Q 2975 2850 2975 3272 
Q 2975 3691 2734 3919 
Q 2494 4147 2053 4147 
L 1259 4147 
z
M 628 4666 
L 2053 4666 
Q 2838 4666 3239 4311 
Q 3641 3956 3641 3272 
Q 3641 2581 3239 2228 
Q 2838 1875 2053 1875 
L 1259 1875 
L 1259 0 
L 628 0 
L 628 4666 
z
" transform="scale(0.015625)"/>
       <path id="DejaVuSans-77" d="M 269 3500 
L 844 3500 
L 1563 769 
L 2278 3500 
L 2956 3500 
L 3675 769 
L 4391 3500 
L 4966 3500 
L 4050 0 
L 3372 0 
L 2619 2869 
L 1863 0 
L 1184 0 
L 269 3500 
z
" transform="scale(0.015625)"/>
       <path id="DejaVuSans-28" d="M 1984 4856 
Q 1566 4138 1362 3434 
Q 1159 2731 1159 2009 
Q 1159 1288 1364 580 
Q 1569 -128 1984 -844 
L 1484 -844 
Q 1016 -109 783 600 
Q 550 1309 550 2009 
Q 550 2706 781 3412 
Q 1013 4119 1484 4856 
L 1984 4856 
z
" transform="scale(0.015625)"/>
       <path id="DejaVuSans-57" d="M 213 4666 
L 850 4666 
L 1831 722 
L 2809 4666 
L 3519 4666 
L 4500 722 
L 5478 4666 
L 6119 4666 
L 4947 0 
L 4153 0 
L 3169 4050 
L 2175 0 
L 1381 0 
L 213 4666 
z
" transform="scale(0.015625)"/>
       <path id="DejaVuSans-29" d="M 513 4856 
L 1013 4856 
Q 1481 4119 1714 3412 
Q 1947 2706 1947 2009 
Q 1947 1309 1714 600 
Q 1481 -109 1013 -844 
L 513 -844 
Q 928 -128 1133 580 
Q 1338 1288 1338 2009 
Q 1338 2731 1133 3434 
Q 928 4138 513 4856 
z
" transform="scale(0.015625)"/>
      </defs>
      <use xlink:href="#DejaVuSans-50"/>
      <use xlink:href="#DejaVuSans-6f" x="56.677734"/>
      <use xlink:href="#DejaVuSans-77" x="117.859375"/>
      <use xlink:href="#DejaVuSans-65" x="199.646484"/>
      <use xlink:href="#DejaVuSans-72" x="261.169922"/>
      <use xlink:href="#DejaVuSans-20" x="302.283203"/>
      <use xlink:href="#DejaVuSans-6c" x="334.070312"/>
      <use xlink:href="#DejaVuSans-6f" x="361.853516"/>
      <use xlink:href="#DejaVuSans-73" x="423.035156"/>
      <use xlink:href="#DejaVuSans-73" x="475.134766"/>
      <use xlink:href="#DejaVuSans-65" x="527.234375"/>
      <use xlink:href="#DejaVuSans-73" x="588.757812"/>
      <use xlink:href="#DejaVuSans-20" x="640.857422"/>
      <use xlink:href="#DejaVuSans-28" x="672.644531"/>
      <use xlink:href="#DejaVuSans-57" x="711.658203"/>
      <use xlink:href="#DejaVuSans-29" x="810.535156"/>
     </g>
    </g>
   </g>
   <g id="LineCollection_1">
    <path d="M 138.436364 197.869483 
L 138.436364 66.96 
" clip-path="url(#pcf3c207351)" style="fill: none; stroke: #1f77b4; stroke-width: 1.5"/>
    <path d="M 150.859369 178.328178 
L 150.859369 86.140181 
" clip-path="url(#pcf3c207351)" style="fill: none; stroke: #1f77b4; stroke-width: 1.5"/>
    <path d="M 163.282375 169.502208 
L 163.282375 94.805379 
" clip-path="url(#pcf3c207351)" style="fill: none; stroke: #1f77b4; stroke-width: 1.5"/>
    <path d="M 175.70538 164.475492 
L 175.70538 99.794321 
" clip-path="url(#pcf3c207351)" style="fill: none; stroke: #1f77b4; stroke-width: 1.5"/>
    <path d="M 188.128386 160.385175 
L 188.128386 102.745117 
" clip-path="url(#pcf3c207351)" style="fill: none; stroke: #1f77b4; stroke-width: 1.5"/>
    <path d="M 250.243414 152.696948 
L 250.243414 111.571921 
" clip-path="url(#pcf3c207351)" style="fill: none; stroke: #1f77b4; stroke-width: 1.5"/>
    <path d="M 312.358442 148.621992 
L 312.358442 115.399292 
" clip-path="url(#pcf3c207351)" style="fill: none; stroke: #1f77b4; stroke-width: 1.5"/>
    <path d="M 374.473469 146.382661 
L 374.473469 117.554702 
" clip-path="url(#pcf3c207351)" style="fill: none; stroke: #1f77b4; stroke-width: 1.5"/>
    <path d="M 436.588497 144.815814 
L 436.588497 119.364727 
" clip-path="url(#pcf3c207351)" style="fill: none; stroke: #1f77b4; stroke-width: 1.5"/>
    <path d="M 498.703525 143.789775 
L 498.703525 120.114065 
" clip-path="url(#pcf3c207351)" style="fill: none; stroke: #1f77b4; stroke-width: 1.5"/>
    <path d="M 622.933581 142.069757 
L 622.933581 121.681383 
" clip-path="url(#pcf3c207351)" style="fill: none; stroke: #1f77b4; stroke-width: 1.5"/>
    <path d="M 747.163636 140.917251 
L 747.163636 122.710628 
" clip-path="url(#pcf3c207351)" style="fill: none; stroke: #1f77b4; stroke-width: 1.5"/>
   </g>
   <g id="line2d_35">
    <defs>
     <path id="m56fcba5e5d" d="M 5 0 
L -5 -0 
" style="stroke: #1f77b4"/>
    </defs>
    <g clip-path="url(#pcf3c207351)">
     <use xlink:href="#m56fcba5e5d" x="138.436364" y="197.869483" style="fill: #1f77b4; stroke: #1f77b4"/>
     <use xlink:href="#m56fcba5e5d" x="150.859369" y="178.328178" style="fill: #1f77b4; stroke: #1f77b4"/>
     <use xlink:href="#m56fcba5e5d" x="163.282375" y="169.502208" style="fill: #1f77b4; stroke: #1f77b4"/>
     <use xlink:href="#m56fcba5e5d" x="175.70538" y="164.475492" style="fill: #1f77b4; stroke: #1f77b4"/>
     <use xlink:href="#m56fcba5e5d" x="188.128386" y="160.385175" style="fill: #1f77b4; stroke: #1f77b4"/>
     <use xlink:href="#m56fcba5e5d" x="250.243414" y="152.696948" style="fill: #1f77b4; stroke: #1f77b4"/>
     <use xlink:href="#m56fcba5e5d" x="312.358442" y="148.621992" style="fill: #1f77b4; stroke: #1f77b4"/>
     <use xlink:href="#m56fcba5e5d" x="374.473469" y="146.382661" style="fill: #1f77b4; stroke: #1f77b4"/>
     <use xlink:href="#m56fcba5e5d" x="436.588497" y="144.815814" style="fill: #1f77b4; stroke: #1f77b4"/>
     <use xlink:href="#m56fcba5e5d" x="498.703525" y="143.789775" style="fill: #1f77b4; stroke: #1f77b4"/>
     <use xlink:href="#m56fcba5e5d" x="622.933581" y="142.069757" style="fill: #1f77b4; stroke: #1f77b4"/>
     <use xlink:href="#m56fcba5e5d" x="747.163636" y="140.917251" style="fill: #1f77b4; stroke: #1f77b4"/>
    </g>
   </g>
   <g id="line2d_36">
    <g clip-path="url(#pcf3c207351)">
     <use xlink:href="#m56fcba5e5d" x="138.436364" y="66.96" style="fill: #1f77b4; stroke: #1f77b4"/>
     <use xlink:href="#m56fcba5e5d" x="150.859369" y="86.140181" style="fill: #1f77b4; stroke: #1f77b4"/>
     <use xlink:href="#m56fcba5e5d" x="163.282375" y="94.805379" style="fill: #1f77b4; stroke: #1f77b4"/>
     <use xlink:href="#m56fcba5e5d" x="175.70538" y="99.794321" style="fill: #1f77b4; stroke: #1f77b4"/>
     <use xlink:href="#m56fcba5e5d" x="188.128386" y="102.745117" style="fill: #1f77b4; stroke: #1f77b4"/>
     <use xlink:href="#m56fcba5e5d" x="250.243414" y="111.571921" style="fill: #1f77b4; stroke: #1f77b4"/>
     <use xlink:href="#m56fcba5e5d" x="312.358442" y="115.399292" style="fill: #1f77b4; stroke: #1f77b4"/>
     <use xlink:href="#m56fcba5e5d" x="374.473469" y="117.554702" style="fill: #1f77b4; stroke: #1f77b4"/>
     <use xlink:href="#m56fcba5e5d" x="436.588497" y="119.364727" style="fill: #1f77b4; stroke: #1f77b4"/>
     <use xlink:href="#m56fcba5e5d" x="498.703525" y="120.114065" style="fill: #1f77b4; stroke: #1f77b4"/>
     <use xlink:href="#m56fcba5e5d" x="622.933581" y="121.681383" style="fill: #1f77b4; stroke: #1f77b4"/>
     <use xlink:href="#m56fcba5e5d" x="747.163636" y="122.710628" style="fill: #1f77b4; stroke: #1f77b4"/>
    </g>
   </g>
   <g id="LineCollection_2">
    <path d="M 138.436364 369.36 
L 138.436364 291.714588 
" clip-path="url(#pcf3c207351)" style="fill: none; stroke: #ff7f0e; stroke-width: 1.5"/>
    <path d="M 150.859369 357.756573 
L 150.859369 303.195455 
" clip-path="url(#pcf3c207351)" style="fill: none; stroke: #ff7f0e; stroke-width: 1.5"/>
    <path d="M 163.282375 352.545559 
L 163.282375 308.548316 
" clip-path="url(#pcf3c207351)" style="fill: none; stroke: #ff7f0e; stroke-width: 1.5"/>
    <path d="M 175.70538 350.056477 
L 175.70538 311.744788 
" clip-path="url(#pcf3c207351)" style="fill: none; stroke: #ff7f0e; stroke-width: 1.5"/>
    <path d="M 188.128386 347.965515 
L 188.128386 313.212979 
" clip-path="url(#pcf3c207351)" style="fill: none; stroke: #ff7f0e; stroke-width: 1.5"/>
    <path d="M 250.243414 342.665662 
L 250.243414 318.411561 
" clip-path="url(#pcf3c207351)" style="fill: none; stroke: #ff7f0e; stroke-width: 1.5"/>
    <path d="M 312.358442 340.625874 
L 312.358442 320.915965 
" clip-path="url(#pcf3c207351)" style="fill: none; stroke: #ff7f0e; stroke-width: 1.5"/>
    <path d="M 374.473469 339.183026 
L 374.473469 321.924499 
" clip-path="url(#pcf3c207351)" style="fill: none; stroke: #ff7f0e; stroke-width: 1.5"/>
    <path d="M 436.588497 338.45663 
L 436.588497 323.081738 
" clip-path="url(#pcf3c207351)" style="fill: none; stroke: #ff7f0e; stroke-width: 1.5"/>
    <path d="M 498.703525 337.722223 
L 498.703525 323.585606 
" clip-path="url(#pcf3c207351)" style="fill: none; stroke: #ff7f0e; stroke-width: 1.5"/>
    <path d="M 622.933581 336.694164 
L 622.933581 324.634695 
" clip-path="url(#pcf3c207351)" style="fill: none; stroke: #ff7f0e; stroke-width: 1.5"/>
    <path d="M 747.163636 336.027325 
L 747.163636 325.182604 
" clip-path="url(#pcf3c207351)" style="fill: none; stroke: #ff7f0e; stroke-width: 1.5"/>
   </g>
   <g id="line2d_37">
    <defs>
     <path id="m1b38ffc591" d="M 5 0 
L -5 -0 
" style="stroke: #ff7f0e"/>
    </defs>
    <g clip-path="url(#pcf3c207351)">
     <use xlink:href="#m1b38ffc591" x="138.436364" y="369.36" style="fill: #ff7f0e; stroke: #ff7f0e"/>
     <use xlink:href="#m1b38ffc591" x="150.859369" y="357.756573" style="fill: #ff7f0e; stroke: #ff7f0e"/>
     <use xlink:href="#m1b38ffc591" x="163.282375" y="352.545559" style="fill: #ff7f0e; stroke: #ff7f0e"/>
     <use xlink:href="#m1b38ffc591" x="175.70538" y="350.056477" style="fill: #ff7f0e; stroke: #ff7f0e"/>
     <use xlink:href="#m1b38ffc591" x="188.128386" y="347.965515" style="fill: #ff7f0e; stroke: #ff7f0e"/>
     <use xlink:href="#m1b38ffc591" x="250.243414" y="342.665662" style="fill: #ff7f0e; stroke: #ff7f0e"/>
     <use xlink:href="#m1b38ffc591" x="312.358442" y="340.625874" style="fill: #ff7f0e; stroke: #ff7f0e"/>
     <use xlink:href="#m1b38ffc591" x="374.473469" y="339.183026" style="fill: #ff7f0e; stroke: #ff7f0e"/>
     <use xlink:href="#m1b38ffc591" x="436.588497" y="338.45663" style="fill: #ff7f0e; stroke: #ff7f0e"/>
     <use xlink:href="#m1b38ffc591" x="498.703525" y="337.722223" style="fill: #ff7f0e; stroke: #ff7f0e"/>
     <use xlink:href="#m1b38ffc591" x="622.933581" y="336.694164" style="fill: #ff7f0e; stroke: #ff7f0e"/>
     <use xlink:href="#m1b38ffc591" x="747.163636" y="336.027325" style="fill: #ff7f0e; stroke: #ff7f0e"/>
    </g>
   </g>
   <g id="line2d_38">
    <g clip-path="url(#pcf3c207351)">
     <use xlink:href="#m1b38ffc591" x="138.436364" y="291.714588" style="fill: #ff7f0e; stroke: #ff7f0e"/>
     <use xlink:href="#m1b38ffc591" x="150.859369" y="303.195455" style="fill: #ff7f0e; stroke: #ff7f0e"/>
     <use xlink:href="#m1b38ffc591" x="163.282375" y="308.548316" style="fill: #ff7f0e; stroke: #ff7f0e"/>
     <use xlink:href="#m1b38ffc591" x="175.70538" y="311.744788" style="fill: #ff7f0e; stroke: #ff7f0e"/>
     <use xlink:href="#m1b38ffc591" x="188.128386" y="313.212979" style="fill: #ff7f0e; stroke: #ff7f0e"/>
     <use xlink:href="#m1b38ffc591" x="250.243414" y="318.411561" style="fill: #ff7f0e; stroke: #ff7f0e"/>
     <use xlink:href="#m1b38ffc591" x="312.358442" y="320.915965" style="fill: #ff7f0e; stroke: #ff7f0e"/>
     <use xlink:href="#m1b38ffc591" x="374.473469" y="321.924499" style="fill: #ff7f0e; stroke: #ff7f0e"/>
     <use xlink:href="#m1b38ffc591" x="436.588497" y="323.081738" style="fill: #ff7f0e; stroke: #ff7f0e"/>
     <use xlink:href="#m1b38ffc591" x="498.703525" y="323.585606" style="fill: #ff7f0e; stroke: #ff7f0e"/>
     <use xlink:href="#m1b38ffc591" x="622.933581" y="324.634695" style="fill: #ff7f0e; stroke: #ff7f0e"/>
     <use xlink:href="#m1b38ffc591" x="747.163636" y="325.182604" style="fill: #ff7f0e; stroke: #ff7f0e"/>
    </g>
   </g>
   <g id="line2d_39">
    <path d="M 108 132.385907 
L 777.6 132.385907 
" clip-path="url(#pcf3c207351)" style="fill: none; stroke-dasharray: 5.55,2.4; stroke-dashoffset: 0; stroke: #000000; stroke-width: 1.5"/>
   </g>
   <g id="line2d_40">
    <defs>
     <path id="m139b1fdfc7" d="M 0 3 
C 0.795609 3 1.55874 2.683901 2.12132 2.12132 
C 2.683901 1.55874 3 0.795609 3 0 
C 3 -0.795609 2.683901 -1.55874 2.12132 -2.12132 
C 1.55874 -2.683901 0.795609 -3 0 -3 
C -0.795609 -3 -1.55874 -2.683901 -2.12132 -2.12132 
C -2.683901 -1.55874 -3 -0.795609 -3 0 
C -3 0.795609 -2.683901 1.55874 -2.12132 2.12132 
C -1.55874 2.683901 -0.795609 3 0 3 
z
" style="stroke: #1f77b4"/>
    </defs>
    <g clip-path="url(#pcf3c207351)">
     <use xlink:href="#m139b1fdfc7" x="138.436364" y="132.414741" style="fill: #1f77b4; stroke: #1f77b4"/>
     <use xlink:href="#m139b1fdfc7" x="150.859369" y="132.234179" style="fill: #1f77b4; stroke: #1f77b4"/>
     <use xlink:href="#m139b1fdfc7" x="163.282375" y="132.153793" style="fill: #1f77b4; stroke: #1f77b4"/>
     <use xlink:href="#m139b1fdfc7" x="175.70538" y="132.134907" style="fill: #1f77b4; stroke: #1f77b4"/>
     <use xlink:href="#m139b1fdfc7" x="188.128386" y="131.565146" style="fill: #1f77b4; stroke: #1f77b4"/>
     <use xlink:href="#m139b1fdfc7" x="250.243414" y="132.134434" style="fill: #1f77b4; stroke: #1f77b4"/>
     <use xlink:href="#m139b1fdfc7" x="312.358442" y="132.010642" style="fill: #1f77b4; stroke: #1f77b4"/>
     <use xlink:href="#m139b1fdfc7" x="374.473469" y="131.968682" style="fill: #1f77b4; stroke: #1f77b4"/>
     <use xlink:href="#m139b1fdfc7" x="436.588497" y="132.090271" style="fill: #1f77b4; stroke: #1f77b4"/>
     <use xlink:href="#m139b1fdfc7" x="498.703525" y="131.95192" style="fill: #1f77b4; stroke: #1f77b4"/>
     <use xlink:href="#m139b1fdfc7" x="622.933581" y="131.87557" style="fill: #1f77b4; stroke: #1f77b4"/>
     <use xlink:href="#m139b1fdfc7" x="747.163636" y="131.813939" style="fill: #1f77b4; stroke: #1f77b4"/>
    </g>
   </g>
   <g id="line2d_41">
    <defs>
     <path id="m88219c3d8a" d="M 0 3 
C 0.795609 3 1.55874 2.683901 2.12132 2.12132 
C 2.683901 1.55874 3 0.795609 3 0 
C 3 -0.795609 2.683901 -1.55874 2.12132 -2.12132 
C 1.55874 -2.683901 0.795609 -3 0 -3 
C -0.795609 -3 -1.55874 -2.683901 -2.12132 -2.12132 
C -2.683901 -1.55874 -3 -0.795609 -3 0 
C -3 0.795609 -2.683901 1.55874 -2.12132 2.12132 
C -1.55874 2.683901 -0.795609 3 0 3 
z
" style="stroke: #ff7f0e"/>
    </defs>
    <g clip-path="url(#pcf3c207351)">
     <use xlink:href="#m88219c3d8a" x="138.436364" y="330.537294" style="fill: #ff7f0e; stroke: #ff7f0e"/>
     <use xlink:href="#m88219c3d8a" x="150.859369" y="330.476014" style="fill: #ff7f0e; stroke: #ff7f0e"/>
     <use xlink:href="#m88219c3d8a" x="163.282375" y="330.546937" style="fill: #ff7f0e; stroke: #ff7f0e"/>
     <use xlink:href="#m88219c3d8a" x="175.70538" y="330.900633" style="fill: #ff7f0e; stroke: #ff7f0e"/>
     <use xlink:href="#m88219c3d8a" x="188.128386" y="330.589247" style="fill: #ff7f0e; stroke: #ff7f0e"/>
     <use xlink:href="#m88219c3d8a" x="250.243414" y="330.538612" style="fill: #ff7f0e; stroke: #ff7f0e"/>
     <use xlink:href="#m88219c3d8a" x="312.358442" y="330.770919" style="fill: #ff7f0e; stroke: #ff7f0e"/>
     <use xlink:href="#m88219c3d8a" x="374.473469" y="330.553763" style="fill: #ff7f0e; stroke: #ff7f0e"/>
     <use xlink:href="#m88219c3d8a" x="436.588497" y="330.769184" style="fill: #ff7f0e; stroke: #ff7f0e"/>
     <use xlink:href="#m88219c3d8a" x="498.703525" y="330.653914" style="fill: #ff7f0e; stroke: #ff7f0e"/>
     <use xlink:href="#m88219c3d8a" x="622.933581" y="330.66443" style="fill: #ff7f0e; stroke: #ff7f0e"/>
     <use xlink:href="#m88219c3d8a" x="747.163636" y="330.604964" style="fill: #ff7f0e; stroke: #ff7f0e"/>
    </g>
   </g>
   <g id="patch_3">
    <path d="M 108 384.48 
L 108 51.84 
" style="fill: none; stroke: #000000; stroke-width: 0.8; stroke-linejoin: miter; stroke-linecap: square"/>
   </g>
   <g id="patch_4">
    <path d="M 777.6 384.48 
L 777.6 51.84 
" style="fill: none; stroke: #000000; stroke-width: 0.8; stroke-linejoin: miter; stroke-linecap: square"/>
   </g>
   <g id="patch_5">
    <path d="M 108 384.48 
L 777.6 384.48 
" style="fill: none; stroke: #000000; stroke-width: 0.8; stroke-linejoin: miter; stroke-linecap: square"/>
   </g>
   <g id="patch_6">
    <path d="M 108 51.84 
L 777.6 51.84 
" style="fill: none; stroke: #000000; stroke-width: 0.8; stroke-linejoin: miter; stroke-linecap: square"/>
   </g>
   <g id="text_20">
    <!-- Power Losses vs Number of acquisition cycles -->
    <g transform="translate(305.506875 45.84) scale(0.12 -0.12)">
     <defs>
      <path id="DejaVuSans-4c" d="M 628 4666 
L 1259 4666 
L 1259 531 
L 3531 531 
L 3531 0 
L 628 0 
L 628 4666 
z
" transform="scale(0.015625)"/>
      <path id="DejaVuSans-76" d="M 191 3500 
L 800 3500 
L 1894 563 
L 2988 3500 
L 3597 3500 
L 2284 0 
L 1503 0 
L 191 3500 
z
" transform="scale(0.015625)"/>
     </defs>
     <use xlink:href="#DejaVuSans-50"/>
     <use xlink:href="#DejaVuSans-6f" x="56.677734"/>
     <use xlink:href="#DejaVuSans-77" x="117.859375"/>
     <use xlink:href="#DejaVuSans-65" x="199.646484"/>
     <use xlink:href="#DejaVuSans-72" x="261.169922"/>
     <use xlink:href="#DejaVuSans-20" x="302.283203"/>
     <use xlink:href="#DejaVuSans-4c" x="334.070312"/>
     <use xlink:href="#DejaVuSans-6f" x="388.033203"/>
     <use xlink:href="#DejaVuSans-73" x="449.214844"/>
     <use xlink:href="#DejaVuSans-73" x="501.314453"/>
     <use xlink:href="#DejaVuSans-65" x="553.414062"/>
     <use xlink:href="#DejaVuSans-73" x="614.9375"/>
     <use xlink:href="#DejaVuSans-20" x="667.037109"/>
     <use xlink:href="#DejaVuSans-76" x="698.824219"/>
     <use xlink:href="#DejaVuSans-73" x="758.003906"/>
     <use xlink:href="#DejaVuSans-20" x="810.103516"/>
     <use xlink:href="#DejaVuSans-4e" x="841.890625"/>
     <use xlink:href="#DejaVuSans-75" x="916.695312"/>
     <use xlink:href="#DejaVuSans-6d" x="980.074219"/>
     <use xlink:href="#DejaVuSans-62" x="1077.486328"/>
     <use xlink:href="#DejaVuSans-65" x="1140.962891"/>
     <use xlink:href="#DejaVuSans-72" x="1202.486328"/>
     <use xlink:href="#DejaVuSans-20" x="1243.599609"/>
     <use xlink:href="#DejaVuSans-6f" x="1275.386719"/>
     <use xlink:href="#DejaVuSans-66" x="1336.568359"/>
     <use xlink:href="#DejaVuSans-20" x="1371.773438"/>
     <use xlink:href="#DejaVuSans-61" x="1403.560547"/>
     <use xlink:href="#DejaVuSans-63" x="1464.839844"/>
     <use xlink:href="#DejaVuSans-71" x="1519.820312"/>
     <use xlink:href="#DejaVuSans-75" x="1583.296875"/>
     <use xlink:href="#DejaVuSans-69" x="1646.675781"/>
     <use xlink:href="#DejaVuSans-73" x="1674.458984"/>
     <use xlink:href="#DejaVuSans-69" x="1726.558594"/>
     <use xlink:href="#DejaVuSans-74" x="1754.341797"/>
     <use xlink:href="#DejaVuSans-69" x="1793.550781"/>
     <use xlink:href="#DejaVuSans-6f" x="1821.333984"/>
     <use xlink:href="#DejaVuSans-6e" x="1882.515625"/>
     <use xlink:href="#DejaVuSans-20" x="1945.894531"/>
     <use xlink:href="#DejaVuSans-63" x="1977.681641"/>
     <use xlink:href="#DejaVuSans-79" x="2032.662109"/>
     <use xlink:href="#DejaVuSans-63" x="2091.841797"/>
     <use xlink:href="#DejaVuSans-6c" x="2146.822266"/>
     <use xlink:href="#DejaVuSans-65" x="2174.605469"/>
     <use xlink:href="#DejaVuSans-73" x="2236.128906"/>
    </g>
   </g>
   <g id="legend_1">
    <g id="patch_7">
     <path d="M 589.725 103.874375 
L 770.6 103.874375 
Q 772.6 103.874375 772.6 101.874375 
L 772.6 58.84 
Q 772.6 56.84 770.6 56.84 
L 589.725 56.84 
Q 587.725 56.84 587.725 58.84 
L 587.725 101.874375 
Q 587.725 103.874375 589.725 103.874375 
z
" style="fill: #ffffff; opacity: 0.8; stroke: #cccccc; stroke-linejoin: miter"/>
    </g>
    <g id="line2d_42">
     <path d="M 591.725 64.938437 
L 601.725 64.938437 
L 611.725 64.938437 
" style="fill: none; stroke-dasharray: 5.55,2.4; stroke-dashoffset: 0; stroke: #000000; stroke-width: 1.5"/>
    </g>
    <g id="text_21">
     <!-- Power losses DISCORAP -->
     <g transform="translate(619.725 68.438437) scale(0.1 -0.1)">
      <defs>
       <path id="DejaVuSans-44" d="M 1259 4147 
L 1259 519 
L 2022 519 
Q 2988 519 3436 956 
Q 3884 1394 3884 2338 
Q 3884 3275 3436 3711 
Q 2988 4147 2022 4147 
L 1259 4147 
z
M 628 4666 
L 1925 4666 
Q 3281 4666 3915 4102 
Q 4550 3538 4550 2338 
Q 4550 1131 3912 565 
Q 3275 0 1925 0 
L 628 0 
L 628 4666 
z
" transform="scale(0.015625)"/>
       <path id="DejaVuSans-49" d="M 628 4666 
L 1259 4666 
L 1259 0 
L 628 0 
L 628 4666 
z
" transform="scale(0.015625)"/>
       <path id="DejaVuSans-53" d="M 3425 4513 
L 3425 3897 
Q 3066 4069 2747 4153 
Q 2428 4238 2131 4238 
Q 1616 4238 1336 4038 
Q 1056 3838 1056 3469 
Q 1056 3159 1242 3001 
Q 1428 2844 1947 2747 
L 2328 2669 
Q 3034 2534 3370 2195 
Q 3706 1856 3706 1288 
Q 3706 609 3251 259 
Q 2797 -91 1919 -91 
Q 1588 -91 1214 -16 
Q 841 59 441 206 
L 441 856 
Q 825 641 1194 531 
Q 1563 422 1919 422 
Q 2459 422 2753 634 
Q 3047 847 3047 1241 
Q 3047 1584 2836 1778 
Q 2625 1972 2144 2069 
L 1759 2144 
Q 1053 2284 737 2584 
Q 422 2884 422 3419 
Q 422 4038 858 4394 
Q 1294 4750 2059 4750 
Q 2388 4750 2728 4690 
Q 3069 4631 3425 4513 
z
" transform="scale(0.015625)"/>
       <path id="DejaVuSans-43" d="M 4122 4306 
L 4122 3641 
Q 3803 3938 3442 4084 
Q 3081 4231 2675 4231 
Q 1875 4231 1450 3742 
Q 1025 3253 1025 2328 
Q 1025 1406 1450 917 
Q 1875 428 2675 428 
Q 3081 428 3442 575 
Q 3803 722 4122 1019 
L 4122 359 
Q 3791 134 3420 21 
Q 3050 -91 2638 -91 
Q 1578 -91 968 557 
Q 359 1206 359 2328 
Q 359 3453 968 4101 
Q 1578 4750 2638 4750 
Q 3056 4750 3426 4639 
Q 3797 4528 4122 4306 
z
" transform="scale(0.015625)"/>
       <path id="DejaVuSans-4f" d="M 2522 4238 
Q 1834 4238 1429 3725 
Q 1025 3213 1025 2328 
Q 1025 1447 1429 934 
Q 1834 422 2522 422 
Q 3209 422 3611 934 
Q 4013 1447 4013 2328 
Q 4013 3213 3611 3725 
Q 3209 4238 2522 4238 
z
M 2522 4750 
Q 3503 4750 4090 4092 
Q 4678 3434 4678 2328 
Q 4678 1225 4090 567 
Q 3503 -91 2522 -91 
Q 1538 -91 948 565 
Q 359 1222 359 2328 
Q 359 3434 948 4092 
Q 1538 4750 2522 4750 
z
" transform="scale(0.015625)"/>
       <path id="DejaVuSans-52" d="M 2841 2188 
Q 3044 2119 3236 1894 
Q 3428 1669 3622 1275 
L 4263 0 
L 3584 0 
L 2988 1197 
Q 2756 1666 2539 1819 
Q 2322 1972 1947 1972 
L 1259 1972 
L 1259 0 
L 628 0 
L 628 4666 
L 2053 4666 
Q 2853 4666 3247 4331 
Q 3641 3997 3641 3322 
Q 3641 2881 3436 2590 
Q 3231 2300 2841 2188 
z
M 1259 4147 
L 1259 2491 
L 2053 2491 
Q 2509 2491 2742 2702 
Q 2975 2913 2975 3322 
Q 2975 3731 2742 3939 
Q 2509 4147 2053 4147 
L 1259 4147 
z
" transform="scale(0.015625)"/>
       <path id="DejaVuSans-41" d="M 2188 4044 
L 1331 1722 
L 3047 1722 
L 2188 4044 
z
M 1831 4666 
L 2547 4666 
L 4325 0 
L 3669 0 
L 3244 1197 
L 1141 1197 
L 716 0 
L 50 0 
L 1831 4666 
z
" transform="scale(0.015625)"/>
      </defs>
      <use xlink:href="#DejaVuSans-50"/>
      <use xlink:href="#DejaVuSans-6f" x="56.677734"/>
      <use xlink:href="#DejaVuSans-77" x="117.859375"/>
      <use xlink:href="#DejaVuSans-65" x="199.646484"/>
      <use xlink:href="#DejaVuSans-72" x="261.169922"/>
      <use xlink:href="#DejaVuSans-20" x="302.283203"/>
      <use xlink:href="#DejaVuSans-6c" x="334.070312"/>
      <use xlink:href="#DejaVuSans-6f" x="361.853516"/>
      <use xlink:href="#DejaVuSans-73" x="423.035156"/>
      <use xlink:href="#DejaVuSans-73" x="475.134766"/>
      <use xlink:href="#DejaVuSans-65" x="527.234375"/>
      <use xlink:href="#DejaVuSans-73" x="588.757812"/>
      <use xlink:href="#DejaVuSans-20" x="640.857422"/>
      <use xlink:href="#DejaVuSans-44" x="672.644531"/>
      <use xlink:href="#DejaVuSans-49" x="749.646484"/>
      <use xlink:href="#DejaVuSans-53" x="779.138672"/>
      <use xlink:href="#DejaVuSans-43" x="842.615234"/>
      <use xlink:href="#DejaVuSans-4f" x="912.439453"/>
      <use xlink:href="#DejaVuSans-52" x="991.150391"/>
      <use xlink:href="#DejaVuSans-41" x="1056.632812"/>
      <use xlink:href="#DejaVuSans-50" x="1125.041016"/>
     </g>
    </g>
    <g id="LineCollection_3">
     <path d="M 601.725 84.616562 
L 601.725 74.616562 
" style="fill: none; stroke: #1f77b4; stroke-width: 1.5"/>
    </g>
    <g id="line2d_43">
     <g>
      <use xlink:href="#m56fcba5e5d" x="601.725" y="84.616562" style="fill: #1f77b4; stroke: #1f77b4"/>
     </g>
    </g>
    <g id="line2d_44">
     <g>
      <use xlink:href="#m56fcba5e5d" x="601.725" y="74.616562" style="fill: #1f77b4; stroke: #1f77b4"/>
     </g>
    </g>
    <g id="line2d_45"/>
    <g id="line2d_46">
     <g>
      <use xlink:href="#m139b1fdfc7" x="601.725" y="79.616562" style="fill: #1f77b4; stroke: #1f77b4"/>
     </g>
    </g>
    <g id="text_22">
     <!-- Compensated Power losses -->
     <g transform="translate(619.725 83.116562) scale(0.1 -0.1)">
      <defs>
       <path id="DejaVuSans-70" d="M 1159 525 
L 1159 -1331 
L 581 -1331 
L 581 3500 
L 1159 3500 
L 1159 2969 
Q 1341 3281 1617 3432 
Q 1894 3584 2278 3584 
Q 2916 3584 3314 3078 
Q 3713 2572 3713 1747 
Q 3713 922 3314 415 
Q 2916 -91 2278 -91 
Q 1894 -91 1617 61 
Q 1341 213 1159 525 
z
M 3116 1747 
Q 3116 2381 2855 2742 
Q 2594 3103 2138 3103 
Q 1681 3103 1420 2742 
Q 1159 2381 1159 1747 
Q 1159 1113 1420 752 
Q 1681 391 2138 391 
Q 2594 391 2855 752 
Q 3116 1113 3116 1747 
z
" transform="scale(0.015625)"/>
       <path id="DejaVuSans-64" d="M 2906 2969 
L 2906 4863 
L 3481 4863 
L 3481 0 
L 2906 0 
L 2906 525 
Q 2725 213 2448 61 
Q 2172 -91 1784 -91 
Q 1150 -91 751 415 
Q 353 922 353 1747 
Q 353 2572 751 3078 
Q 1150 3584 1784 3584 
Q 2172 3584 2448 3432 
Q 2725 3281 2906 2969 
z
M 947 1747 
Q 947 1113 1208 752 
Q 1469 391 1925 391 
Q 2381 391 2643 752 
Q 2906 1113 2906 1747 
Q 2906 2381 2643 2742 
Q 2381 3103 1925 3103 
Q 1469 3103 1208 2742 
Q 947 2381 947 1747 
z
" transform="scale(0.015625)"/>
      </defs>
      <use xlink:href="#DejaVuSans-43"/>
      <use xlink:href="#DejaVuSans-6f" x="69.824219"/>
      <use xlink:href="#DejaVuSans-6d" x="131.005859"/>
      <use xlink:href="#DejaVuSans-70" x="228.417969"/>
      <use xlink:href="#DejaVuSans-65" x="291.894531"/>
      <use xlink:href="#DejaVuSans-6e" x="353.417969"/>
      <use xlink:href="#DejaVuSans-73" x="416.796875"/>
      <use xlink:href="#DejaVuSans-61" x="468.896484"/>
      <use xlink:href="#DejaVuSans-74" x="530.175781"/>
      <use xlink:href="#DejaVuSans-65" x="569.384766"/>
      <use xlink:href="#DejaVuSans-64" x="630.908203"/>
      <use xlink:href="#DejaVuSans-20" x="694.384766"/>
      <use xlink:href="#DejaVuSans-50" x="726.171875"/>
      <use xlink:href="#DejaVuSans-6f" x="782.849609"/>
      <use xlink:href="#DejaVuSans-77" x="844.03125"/>
      <use xlink:href="#DejaVuSans-65" x="925.818359"/>
      <use xlink:href="#DejaVuSans-72" x="987.341797"/>
      <use xlink:href="#DejaVuSans-20" x="1028.455078"/>
      <use xlink:href="#DejaVuSans-6c" x="1060.242188"/>
      <use xlink:href="#DejaVuSans-6f" x="1088.025391"/>
      <use xlink:href="#DejaVuSans-73" x="1149.207031"/>
      <use xlink:href="#DejaVuSans-73" x="1201.306641"/>
      <use xlink:href="#DejaVuSans-65" x="1253.40625"/>
      <use xlink:href="#DejaVuSans-73" x="1314.929688"/>
     </g>
    </g>
    <g id="LineCollection_4">
     <path d="M 601.725 99.294687 
L 601.725 89.294687 
" style="fill: none; stroke: #ff7f0e; stroke-width: 1.5"/>
    </g>
    <g id="line2d_47">
     <g>
      <use xlink:href="#m1b38ffc591" x="601.725" y="99.294687" style="fill: #ff7f0e; stroke: #ff7f0e"/>
     </g>
    </g>
    <g id="line2d_48">
     <g>
      <use xlink:href="#m1b38ffc591" x="601.725" y="89.294687" style="fill: #ff7f0e; stroke: #ff7f0e"/>
     </g>
    </g>
    <g id="line2d_49"/>
    <g id="line2d_50">
     <g>
      <use xlink:href="#m88219c3d8a" x="601.725" y="94.294687" style="fill: #ff7f0e; stroke: #ff7f0e"/>
     </g>
    </g>
    <g id="text_23">
     <!-- Uncompensated Power losses -->
     <g transform="translate(619.725 97.794687) scale(0.1 -0.1)">
      <defs>
       <path id="DejaVuSans-55" d="M 556 4666 
L 1191 4666 
L 1191 1831 
Q 1191 1081 1462 751 
Q 1734 422 2344 422 
Q 2950 422 3222 751 
Q 3494 1081 3494 1831 
L 3494 4666 
L 4128 4666 
L 4128 1753 
Q 4128 841 3676 375 
Q 3225 -91 2344 -91 
Q 1459 -91 1007 375 
Q 556 841 556 1753 
L 556 4666 
z
" transform="scale(0.015625)"/>
      </defs>
      <use xlink:href="#DejaVuSans-55"/>
      <use xlink:href="#DejaVuSans-6e" x="73.193359"/>
      <use xlink:href="#DejaVuSans-63" x="136.572266"/>
      <use xlink:href="#DejaVuSans-6f" x="191.552734"/>
      <use xlink:href="#DejaVuSans-6d" x="252.734375"/>
      <use xlink:href="#DejaVuSans-70" x="350.146484"/>
      <use xlink:href="#DejaVuSans-65" x="413.623047"/>
      <use xlink:href="#DejaVuSans-6e" x="475.146484"/>
      <use xlink:href="#DejaVuSans-73" x="538.525391"/>
      <use xlink:href="#DejaVuSans-61" x="590.625"/>
      <use xlink:href="#DejaVuSans-74" x="651.904297"/>
      <use xlink:href="#DejaVuSans-65" x="691.113281"/>
      <use xlink:href="#DejaVuSans-64" x="752.636719"/>
      <use xlink:href="#DejaVuSans-20" x="816.113281"/>
      <use xlink:href="#DejaVuSans-50" x="847.900391"/>
      <use xlink:href="#DejaVuSans-6f" x="904.578125"/>
      <use xlink:href="#DejaVuSans-77" x="965.759766"/>
      <use xlink:href="#DejaVuSans-65" x="1047.546875"/>
      <use xlink:href="#DejaVuSans-72" x="1109.070312"/>
      <use xlink:href="#DejaVuSans-20" x="1150.183594"/>
      <use xlink:href="#DejaVuSans-6c" x="1181.970703"/>
      <use xlink:href="#DejaVuSans-6f" x="1209.753906"/>
      <use xlink:href="#DejaVuSans-73" x="1270.935547"/>
      <use xlink:href="#DejaVuSans-73" x="1323.035156"/>
      <use xlink:href="#DejaVuSans-65" x="1375.134766"/>
      <use xlink:href="#DejaVuSans-73" x="1436.658203"/>
     </g>
    </g>
   </g>
  </g>
 </g>
 <defs>
  <clipPath id="pcf3c207351">
   <rect x="108" y="51.84" width="669.6" height="332.64"/>
  </clipPath>
 </defs>
</svg>
